<svg id="visual" viewBox="0 0 960 300" width="960" height="300" xmlns="http://www.w3.org/2000/svg" xmlns:xlink="http://www.w3.org/1999/xlink" version="1.1"><rect x="0" y="0" width="960" height="300" fill="#457b9d"></rect><path d="M0 254L17.8 243C35.7 232 71.3 210 106.8 202.8C142.3 195.7 177.7 203.3 213.2 215.2C248.7 227 284.3 243 320 250.3C355.7 257.7 391.3 256.3 426.8 241.5C462.3 226.7 497.7 198.3 533.2 179C568.7 159.7 604.3 149.3 640 151.2C675.7 153 711.3 167 746.8 172.2C782.3 177.3 817.7 173.7 853.2 169.5C888.7 165.3 924.3 160.7 942.2 158.3L960 156L960 0L942.2 0C924.3 0 888.7 0 853.2 0C817.7 0 782.3 0 746.8 0C711.3 0 675.7 0 640 0C604.3 0 568.7 0 533.2 0C497.7 0 462.3 0 426.8 0C391.3 0 355.7 0 320 0C284.3 0 248.7 0 213.2 0C177.7 0 142.3 0 106.8 0C71.3 0 35.7 0 17.8 0L0 0Z" fill="#457b9d"></path><path d="M0 157L17.8 151.5C35.7 146 71.3 135 106.8 146.5C142.3 158 177.7 192 213.2 193.8C248.7 195.7 284.3 165.3 320 160.5C355.7 155.7 391.3 176.3 426.8 176.2C462.3 176 497.7 155 533.2 147.7C568.7 140.3 604.3 146.7 640 147.7C675.7 148.7 711.3 144.3 746.8 138.7C782.3 133 817.7 126 853.2 133C888.7 140 924.3 161 942.2 171.5L960 182L960 0L942.2 0C924.3 0 888.7 0 853.2 0C817.7 0 782.3 0 746.8 0C711.3 0 675.7 0 640 0C604.3 0 568.7 0 533.2 0C497.7 0 462.3 0 426.8 0C391.3 0 355.7 0 320 0C284.3 0 248.7 0 213.2 0C177.7 0 142.3 0 106.8 0C71.3 0 35.7 0 17.8 0L0 0Z" fill="#3c6c8f"></path><path d="M0 158L17.8 147.7C35.7 137.3 71.3 116.7 106.8 104.8C142.3 93 177.7 90 213.2 105C248.7 120 284.3 153 320 168C355.7 183 391.3 180 426.8 179.7C462.3 179.3 497.7 181.7 533.2 178C568.7 174.3 604.3 164.7 640 154C675.7 143.3 711.3 131.7 746.8 132.5C782.3 133.3 817.7 146.7 853.2 148.5C888.7 150.3 924.3 140.7 942.2 135.8L960 131L960 0L942.2 0C924.3 0 888.7 0 853.2 0C817.7 0 782.3 0 746.8 0C711.3 0 675.7 0 640 0C604.3 0 568.7 0 533.2 0C497.7 0 462.3 0 426.8 0C391.3 0 355.7 0 320 0C284.3 0 248.7 0 213.2 0C177.7 0 142.3 0 106.8 0C71.3 0 35.7 0 17.8 0L0 0Z" fill="#345e81"></path><path d="M0 100L17.8 108C35.7 116 71.3 132 106.8 134C142.3 136 177.7 124 213.2 116.5C248.7 109 284.3 106 320 105C355.7 104 391.3 105 426.8 102.8C462.3 100.7 497.7 95.3 533.2 88.7C568.7 82 604.3 74 640 80.2C675.7 86.3 711.3 106.7 746.8 118.2C782.3 129.7 817.7 132.3 853.2 136.2C888.7 140 924.3 145 942.2 147.5L960 150L960 0L942.2 0C924.3 0 888.7 0 853.2 0C817.7 0 782.3 0 746.8 0C711.3 0 675.7 0 640 0C604.3 0 568.7 0 533.2 0C497.7 0 462.3 0 426.8 0C391.3 0 355.7 0 320 0C284.3 0 248.7 0 213.2 0C177.7 0 142.3 0 106.8 0C71.3 0 35.7 0 17.8 0L0 0Z" fill="#2c5073"></path><path d="M0 53L17.8 61.5C35.7 70 71.3 87 106.8 87C142.3 87 177.7 70 213.2 62.2C248.7 54.3 284.3 55.7 320 57.3C355.7 59 391.3 61 426.8 64.5C462.3 68 497.7 73 533.2 78.3C568.7 83.7 604.3 89.3 640 94C675.7 98.7 711.3 102.3 746.8 104C782.3 105.7 817.7 105.3 853.2 101.7C888.7 98 924.3 91 942.2 87.5L960 84L960 0L942.2 0C924.3 0 888.7 0 853.2 0C817.7 0 782.3 0 746.8 0C711.3 0 675.7 0 640 0C604.3 0 568.7 0 533.2 0C497.7 0 462.3 0 426.8 0C391.3 0 355.7 0 320 0C284.3 0 248.7 0 213.2 0C177.7 0 142.3 0 106.8 0C71.3 0 35.7 0 17.8 0L0 0Z" fill="#244265"></path><path d="M0 67L17.8 66.2C35.7 65.3 71.3 63.7 106.8 58.5C142.3 53.3 177.7 44.7 213.2 37.7C248.7 30.7 284.3 25.3 320 28C355.7 30.7 391.3 41.3 426.8 40.3C462.3 39.3 497.7 26.7 533.2 25.5C568.7 24.3 604.3 34.7 640 42.2C675.7 49.7 711.3 54.3 746.8 57.2C782.3 60 817.7 61 853.2 60.2C888.7 59.3 924.3 56.7 942.2 55.3L960 54L960 0L942.2 0C924.3 0 888.7 0 853.2 0C817.7 0 782.3 0 746.8 0C711.3 0 675.7 0 640 0C604.3 0 568.7 0 533.2 0C497.7 0 462.3 0 426.8 0C391.3 0 355.7 0 320 0C284.3 0 248.7 0 213.2 0C177.7 0 142.3 0 106.8 0C71.3 0 35.7 0 17.8 0L0 0Z" fill="#1d3557"></path></svg>