<svg id="visual" viewBox="0 0 960 300" width="960" height="300" xmlns="http://www.w3.org/2000/svg" xmlns:xlink="http://www.w3.org/1999/xlink" version="1.1"><path d="M0 43L20 44.5C40 46 80 49 120 47C160 45 200 38 240 39.5C280 41 320 51 360 51.5C400 52 440 43 480 36.5C520 30 560 26 600 23.5C640 21 680 20 720 24C760 28 800 37 840 44.5C880 52 920 58 940 61L960 64L960 0L940 0C920 0 880 0 840 0C800 0 760 0 720 0C680 0 640 0 600 0C560 0 520 0 480 0C440 0 400 0 360 0C320 0 280 0 240 0C200 0 160 0 120 0C80 0 40 0 20 0L0 0Z" fill="#457b9d"></path><path d="M0 115L20 119C40 123 80 131 120 130.5C160 130 200 121 240 122C280 123 320 134 360 146C400 158 440 171 480 173C520 175 560 166 600 157.5C640 149 680 141 720 141.5C760 142 800 151 840 156C880 161 920 162 940 162.5L960 163L960 62L940 59C920 56 880 50 840 42.5C800 35 760 26 720 22C680 18 640 19 600 21.5C560 24 520 28 480 34.5C440 41 400 50 360 49.5C320 49 280 39 240 37.5C200 36 160 43 120 45C80 47 40 44 20 42.5L0 41Z" fill="#5992ad"></path><path d="M0 205L20 203C40 201 80 197 120 197C160 197 200 201 240 201.5C280 202 320 199 360 202C400 205 440 214 480 218.5C520 223 560 223 600 219C640 215 680 207 720 203C760 199 800 199 840 203C880 207 920 215 940 219L960 223L960 161L940 160.5C920 160 880 159 840 154C800 149 760 140 720 139.5C680 139 640 147 600 155.5C560 164 520 173 480 171C440 169 400 156 360 144C320 132 280 121 240 120C200 119 160 128 120 128.5C80 129 40 121 20 117L0 113Z" fill="#70aabd"></path><path d="M0 247L20 241.5C40 236 80 225 120 223C160 221 200 228 240 230.5C280 233 320 231 360 232C400 233 440 237 480 245.5C520 254 560 267 600 266.5C640 266 680 252 720 243C760 234 800 230 840 233C880 236 920 246 940 251L960 256L960 221L940 217C920 213 880 205 840 201C800 197 760 197 720 201C680 205 640 213 600 217C560 221 520 221 480 216.5C440 212 400 203 360 200C320 197 280 200 240 199.5C200 199 160 195 120 195C80 195 40 199 20 201L0 203Z" fill="#8bc2cc"></path><path d="M0 301L20 301C40 301 80 301 120 301C160 301 200 301 240 301C280 301 320 301 360 301C400 301 440 301 480 301C520 301 560 301 600 301C640 301 680 301 720 301C760 301 800 301 840 301C880 301 920 301 940 301L960 301L960 254L940 249C920 244 880 234 840 231C800 228 760 232 720 241C680 250 640 264 600 264.5C560 265 520 252 480 243.5C440 235 400 231 360 230C320 229 280 231 240 228.5C200 226 160 219 120 221C80 223 40 234 20 239.5L0 245Z" fill="#a8dadc"></path></svg>