<svg id="visual" viewBox="0 0 960 300" width="960" height="300" xmlns="http://www.w3.org/2000/svg" xmlns:xlink="http://www.w3.org/1999/xlink" version="1.1"><rect x="0" y="0" width="960" height="300" fill="#1d3557"></rect><path d="M0 110L64 116L128 127L192 95L256 92L320 107L384 86L448 141L512 64L576 75L640 125L704 121L768 89L832 81L896 121L960 68L960 301L896 301L832 301L768 301L704 301L640 301L576 301L512 301L448 301L384 301L320 301L256 301L192 301L128 301L64 301L0 301Z" fill="#457b9d"></path><path d="M0 102L64 96L128 154L192 127L256 112L320 113L384 95L448 152L512 160L576 102L640 159L704 163L768 107L832 110L896 113L960 104L960 301L896 301L832 301L768 301L704 301L640 301L576 301L512 301L448 301L384 301L320 301L256 301L192 301L128 301L64 301L0 301Z" fill="#3e6f91"></path><path d="M0 176L64 168L128 134L192 175L256 147L320 131L384 150L448 130L512 177L576 146L640 165L704 163L768 163L832 180L896 138L960 143L960 301L896 301L832 301L768 301L704 301L640 301L576 301L512 301L448 301L384 301L320 301L256 301L192 301L128 301L64 301L0 301Z" fill="#376386"></path><path d="M0 192L64 177L128 184L192 183L256 198L320 164L384 209L448 210L512 169L576 173L640 195L704 177L768 173L832 185L896 197L960 184L960 301L896 301L832 301L768 301L704 301L640 301L576 301L512 301L448 301L384 301L320 301L256 301L192 301L128 301L64 301L0 301Z" fill="#30577a"></path><path d="M0 193L64 205L128 227L192 193L256 188L320 197L384 192L448 211L512 205L576 220L640 229L704 188L768 195L832 204L896 231L960 209L960 301L896 301L832 301L768 301L704 301L640 301L576 301L512 301L448 301L384 301L320 301L256 301L192 301L128 301L64 301L0 301Z" fill="#294b6e"></path><path d="M0 251L64 247L128 238L192 237L256 241L320 246L384 228L448 224L512 244L576 219L640 233L704 252L768 248L832 227L896 219L960 222L960 301L896 301L832 301L768 301L704 301L640 301L576 301L512 301L448 301L384 301L320 301L256 301L192 301L128 301L64 301L0 301Z" fill="#234063"></path><path d="M0 248L64 274L128 252L192 268L256 263L320 250L384 250L448 252L512 273L576 258L640 272L704 251L768 252L832 259L896 250L960 249L960 301L896 301L832 301L768 301L704 301L640 301L576 301L512 301L448 301L384 301L320 301L256 301L192 301L128 301L64 301L0 301Z" fill="#1d3557"></path></svg>