<svg id="visual" viewBox="0 0 960 300" width="960" height="300" xmlns="http://www.w3.org/2000/svg" xmlns:xlink="http://www.w3.org/1999/xlink" version="1.1"><rect x="0" y="0" width="960" height="300" fill="#1d3557"></rect><path d="M0 125L69 90L137 117L206 134L274 91L343 87L411 142L480 91L549 116L617 134L686 99L754 89L823 125L891 70L960 101L960 301L891 301L823 301L754 301L686 301L617 301L549 301L480 301L411 301L343 301L274 301L206 301L137 301L69 301L0 301Z" fill="#457b9d"></path><path d="M0 143L69 157L137 131L206 122L274 150L343 116L411 109L480 161L549 127L617 132L686 91L754 98L823 117L891 95L960 149L960 301L891 301L823 301L754 301L686 301L617 301L549 301L480 301L411 301L343 301L274 301L206 301L137 301L69 301L0 301Z" fill="#5088a6"></path><path d="M0 125L69 140L137 163L206 124L274 125L343 132L411 180L480 156L549 122L617 164L686 121L754 118L823 150L891 155L960 122L960 301L891 301L823 301L754 301L686 301L617 301L549 301L480 301L411 301L343 301L274 301L206 301L137 301L69 301L0 301Z" fill="#5c96b0"></path><path d="M0 160L69 196L137 190L206 165L274 190L343 178L411 179L480 143L549 167L617 163L686 200L754 164L823 189L891 166L960 170L960 301L891 301L823 301L754 301L686 301L617 301L549 301L480 301L411 301L343 301L274 301L206 301L137 301L69 301L0 301Z" fill="#69a3b9"></path><path d="M0 186L69 185L137 218L206 214L274 203L343 215L411 171L480 212L549 185L617 171L686 210L754 186L823 215L891 218L960 182L960 301L891 301L823 301L754 301L686 301L617 301L549 301L480 301L411 301L343 301L274 301L206 301L137 301L69 301L0 301Z" fill="#77b1c1"></path><path d="M0 237L69 205L137 213L206 223L274 231L343 228L411 217L480 217L549 209L617 227L686 202L754 238L823 221L891 232L960 206L960 301L891 301L823 301L754 301L686 301L617 301L549 301L480 301L411 301L343 301L274 301L206 301L137 301L69 301L0 301Z" fill="#87bfca"></path><path d="M0 246L69 254L137 226L206 256L274 234L343 247L411 236L480 226L549 233L617 248L686 232L754 228L823 246L891 249L960 252L960 301L891 301L823 301L754 301L686 301L617 301L549 301L480 301L411 301L343 301L274 301L206 301L137 301L69 301L0 301Z" fill="#97ccd3"></path><path d="M0 253L69 272L137 271L206 277L274 279L343 269L411 259L480 254L549 276L617 257L686 260L754 268L823 253L891 252L960 264L960 301L891 301L823 301L754 301L686 301L617 301L549 301L480 301L411 301L343 301L274 301L206 301L137 301L69 301L0 301Z" fill="#a8dadc"></path></svg>