<svg id="visual" viewBox="0 0 960 300" width="960" height="300" xmlns="http://www.w3.org/2000/svg" xmlns:xlink="http://www.w3.org/1999/xlink" version="1.1"><rect x="0" y="0" width="960" height="300" fill="#1d3557"></rect><path d="M0 132L64 112L128 71L192 83L256 93L320 90L384 117L448 82L512 71L576 115L640 137L704 142L768 62L832 115L896 65L960 104L960 301L896 301L832 301L768 301L704 301L640 301L576 301L512 301L448 301L384 301L320 301L256 301L192 301L128 301L64 301L0 301Z" fill="#457b9d"></path><path d="M0 95L64 132L128 124L192 145L256 124L320 117L384 168L448 111L512 94L576 161L640 125L704 117L768 147L832 123L896 123L960 93L960 301L896 301L832 301L768 301L704 301L640 301L576 301L512 301L448 301L384 301L320 301L256 301L192 301L128 301L64 301L0 301Z" fill="#3e6f91"></path><path d="M0 141L64 132L128 165L192 181L256 158L320 161L384 183L448 187L512 158L576 158L640 168L704 135L768 166L832 142L896 182L960 151L960 301L896 301L832 301L768 301L704 301L640 301L576 301L512 301L448 301L384 301L320 301L256 301L192 301L128 301L64 301L0 301Z" fill="#376386"></path><path d="M0 191L64 156L128 158L192 204L256 193L320 187L384 201L448 201L512 156L576 190L640 177L704 158L768 207L832 191L896 195L960 197L960 301L896 301L832 301L768 301L704 301L640 301L576 301L512 301L448 301L384 301L320 301L256 301L192 301L128 301L64 301L0 301Z" fill="#30577a"></path><path d="M0 192L64 194L128 225L192 205L256 198L320 211L384 206L448 206L512 189L576 202L640 211L704 192L768 190L832 217L896 217L960 201L960 301L896 301L832 301L768 301L704 301L640 301L576 301L512 301L448 301L384 301L320 301L256 301L192 301L128 301L64 301L0 301Z" fill="#294b6e"></path><path d="M0 223L64 237L128 234L192 239L256 225L320 253L384 253L448 233L512 250L576 254L640 219L704 227L768 254L832 235L896 251L960 248L960 301L896 301L832 301L768 301L704 301L640 301L576 301L512 301L448 301L384 301L320 301L256 301L192 301L128 301L64 301L0 301Z" fill="#234063"></path><path d="M0 254L64 271L128 251L192 274L256 272L320 247L384 248L448 272L512 262L576 252L640 248L704 254L768 248L832 251L896 270L960 276L960 301L896 301L832 301L768 301L704 301L640 301L576 301L512 301L448 301L384 301L320 301L256 301L192 301L128 301L64 301L0 301Z" fill="#1d3557"></path></svg>