<svg id="visual" viewBox="0 0 960 150" width="960" height="150" xmlns="http://www.w3.org/2000/svg" xmlns:xlink="http://www.w3.org/1999/xlink" version="1.1"><rect x="0" y="0" width="960" height="150" fill="#1d3557"></rect><path d="M0 35L64 47L128 32L192 38L256 72L320 60L384 44L448 36L512 48L576 36L640 48L704 34L768 38L832 72L896 57L960 55L960 151L896 151L832 151L768 151L704 151L640 151L576 151L512 151L448 151L384 151L320 151L256 151L192 151L128 151L64 151L0 151Z" fill="#457b9d"></path><path d="M0 61L64 56L128 73L192 56L256 73L320 66L384 78L448 55L512 60L576 50L640 82L704 65L768 73L832 49L896 60L960 79L960 151L896 151L832 151L768 151L704 151L640 151L576 151L512 151L448 151L384 151L320 151L256 151L192 151L128 151L64 151L0 151Z" fill="#3e6f91"></path><path d="M0 71L64 75L128 67L192 71L256 77L320 74L384 67L448 77L512 91L576 87L640 79L704 80L768 66L832 71L896 64L960 78L960 151L896 151L832 151L768 151L704 151L640 151L576 151L512 151L448 151L384 151L320 151L256 151L192 151L128 151L64 151L0 151Z" fill="#376386"></path><path d="M0 84L64 87L128 81L192 92L256 102L320 79L384 87L448 104L512 104L576 90L640 95L704 100L768 102L832 83L896 94L960 77L960 151L896 151L832 151L768 151L704 151L640 151L576 151L512 151L448 151L384 151L320 151L256 151L192 151L128 151L64 151L0 151Z" fill="#30577a"></path><path d="M0 92L64 108L128 112L192 115L256 97L320 103L384 100L448 113L512 103L576 102L640 109L704 93L768 97L832 96L896 109L960 93L960 151L896 151L832 151L768 151L704 151L640 151L576 151L512 151L448 151L384 151L320 151L256 151L192 151L128 151L64 151L0 151Z" fill="#294b6e"></path><path d="M0 110L64 109L128 115L192 108L256 109L320 121L384 119L448 112L512 118L576 119L640 117L704 119L768 120L832 114L896 113L960 112L960 151L896 151L832 151L768 151L704 151L640 151L576 151L512 151L448 151L384 151L320 151L256 151L192 151L128 151L64 151L0 151Z" fill="#234063"></path><path d="M0 127L64 134L128 128L192 136L256 123L320 130L384 133L448 137L512 132L576 138L640 132L704 134L768 136L832 133L896 123L960 125L960 151L896 151L832 151L768 151L704 151L640 151L576 151L512 151L448 151L384 151L320 151L256 151L192 151L128 151L64 151L0 151Z" fill="#1d3557"></path></svg>