<svg id="visual" viewBox="0 0 960 150" width="960" height="150" xmlns="http://www.w3.org/2000/svg" xmlns:xlink="http://www.w3.org/1999/xlink" version="1.1"><rect x="0" y="0" width="960" height="150" fill="#1d3557"></rect><path d="M0 56L64 62L128 34L192 68L256 35L320 59L384 58L448 70L512 70L576 35L640 66L704 47L768 51L832 52L896 53L960 32L960 151L896 151L832 151L768 151L704 151L640 151L576 151L512 151L448 151L384 151L320 151L256 151L192 151L128 151L64 151L0 151Z" fill="#457b9d"></path><path d="M0 51L64 68L128 83L192 54L256 68L320 47L384 68L448 77L512 74L576 79L640 58L704 64L768 82L832 75L896 49L960 66L960 151L896 151L832 151L768 151L704 151L640 151L576 151L512 151L448 151L384 151L320 151L256 151L192 151L128 151L64 151L0 151Z" fill="#3e6f91"></path><path d="M0 70L64 73L128 82L192 84L256 76L320 92L384 73L448 79L512 82L576 92L640 86L704 74L768 80L832 66L896 72L960 66L960 151L896 151L832 151L768 151L704 151L640 151L576 151L512 151L448 151L384 151L320 151L256 151L192 151L128 151L64 151L0 151Z" fill="#376386"></path><path d="M0 77L64 96L128 79L192 101L256 98L320 81L384 91L448 104L512 87L576 96L640 79L704 100L768 87L832 93L896 91L960 105L960 151L896 151L832 151L768 151L704 151L640 151L576 151L512 151L448 151L384 151L320 151L256 151L192 151L128 151L64 151L0 151Z" fill="#30577a"></path><path d="M0 111L64 92L128 94L192 95L256 108L320 105L384 102L448 111L512 95L576 99L640 94L704 106L768 102L832 113L896 108L960 111L960 151L896 151L832 151L768 151L704 151L640 151L576 151L512 151L448 151L384 151L320 151L256 151L192 151L128 151L64 151L0 151Z" fill="#294b6e"></path><path d="M0 109L64 109L128 117L192 126L256 117L320 109L384 115L448 118L512 119L576 112L640 122L704 118L768 125L832 111L896 114L960 109L960 151L896 151L832 151L768 151L704 151L640 151L576 151L512 151L448 151L384 151L320 151L256 151L192 151L128 151L64 151L0 151Z" fill="#234063"></path><path d="M0 127L64 130L128 128L192 128L256 128L320 130L384 137L448 133L512 134L576 136L640 133L704 134L768 135L832 124L896 136L960 124L960 151L896 151L832 151L768 151L704 151L640 151L576 151L512 151L448 151L384 151L320 151L256 151L192 151L128 151L64 151L0 151Z" fill="#1d3557"></path></svg>