<svg id="visual" viewBox="0 0 960 150" width="960" height="150" xmlns="http://www.w3.org/2000/svg" xmlns:xlink="http://www.w3.org/1999/xlink" version="1.1"><rect x="0" y="0" width="960" height="150" fill="#1d3557"></rect><path d="M0 67L64 39L128 59L192 53L256 69L320 48L384 63L448 43L512 32L576 56L640 49L704 31L768 51L832 32L896 61L960 33L960 151L896 151L832 151L768 151L704 151L640 151L576 151L512 151L448 151L384 151L320 151L256 151L192 151L128 151L64 151L0 151Z" fill="#457b9d"></path><path d="M0 59L64 69L128 56L192 79L256 47L320 82L384 60L448 74L512 64L576 67L640 57L704 51L768 74L832 57L896 49L960 77L960 151L896 151L832 151L768 151L704 151L640 151L576 151L512 151L448 151L384 151L320 151L256 151L192 151L128 151L64 151L0 151Z" fill="#3e6f91"></path><path d="M0 81L64 78L128 65L192 76L256 92L320 85L384 78L448 87L512 91L576 82L640 71L704 82L768 92L832 67L896 72L960 67L960 151L896 151L832 151L768 151L704 151L640 151L576 151L512 151L448 151L384 151L320 151L256 151L192 151L128 151L64 151L0 151Z" fill="#376386"></path><path d="M0 101L64 93L128 94L192 92L256 93L320 101L384 85L448 98L512 103L576 77L640 99L704 77L768 80L832 88L896 100L960 103L960 151L896 151L832 151L768 151L704 151L640 151L576 151L512 151L448 151L384 151L320 151L256 151L192 151L128 151L64 151L0 151Z" fill="#30577a"></path><path d="M0 98L64 96L128 95L192 106L256 99L320 110L384 109L448 108L512 100L576 102L640 93L704 107L768 102L832 95L896 97L960 94L960 151L896 151L832 151L768 151L704 151L640 151L576 151L512 151L448 151L384 151L320 151L256 151L192 151L128 151L64 151L0 151Z" fill="#294b6e"></path><path d="M0 111L64 118L128 120L192 114L256 110L320 119L384 122L448 115L512 108L576 109L640 121L704 109L768 113L832 116L896 126L960 110L960 151L896 151L832 151L768 151L704 151L640 151L576 151L512 151L448 151L384 151L320 151L256 151L192 151L128 151L64 151L0 151Z" fill="#234063"></path><path d="M0 135L64 129L128 130L192 130L256 125L320 130L384 132L448 137L512 135L576 136L640 129L704 134L768 135L832 134L896 135L960 136L960 151L896 151L832 151L768 151L704 151L640 151L576 151L512 151L448 151L384 151L320 151L256 151L192 151L128 151L64 151L0 151Z" fill="#1d3557"></path></svg>